<svg xmlns="http://www.w3.org/2000/svg" width="44" height="44" fill="none" viewBox="0 0 44 44"><g fill="#fff" fill-rule="evenodd" clip-rule="evenodd" opacity=".922"><path d="M18.0594 0C18.288 0 18.5165 0 18.7451 0C18.8968 0.13864 18.9967 0.310515 19.0451 0.515625C19.1022 3.03646 19.1022 5.5573 19.0451 8.07813C18.8883 8.56438 18.5597 8.72197 18.0594 8.55078C17.9266 8.44645 17.8267 8.31755 17.7594 8.16406C17.7022 5.58594 17.7022 3.00781 17.7594 0.429688C17.8448 0.273018 17.9449 0.129789 18.0594 0Z"/><path d="M10.431 2.92188C10.7675 2.88292 11.0389 2.9975 11.2453 3.26563C12.3024 4.8698 13.3596 6.47397 14.4166 8.07813C14.8708 8.87383 14.6565 9.28917 13.7738 9.32423C13.6207 9.25677 13.4921 9.15656 13.3881 9.02345C12.3024 7.36199 11.2168 5.70053 10.131 4.03907C9.90374 3.56977 10.0037 3.19737 10.431 2.92188Z"/><path d="M25.9449 2.92188C26.7034 2.95313 26.9463 3.32553 26.6734 4.03906C25.5592 5.72917 24.4449 7.41927 23.3307 9.10938C22.9231 9.47538 22.5517 9.44677 22.2164 9.02344C22.1592 8.79424 22.1592 8.56511 22.2164 8.33594C23.3021 6.67448 24.3877 5.01302 25.4735 3.35156C25.6217 3.18812 25.7788 3.04489 25.9449 2.92188Z"/><path d="M16.9451 44C16.3737 44 15.8023 44 15.2309 44C14.8094 43.8451 14.438 43.6017 14.1166 43.2695C11.9286 41.047 9.7144 38.8556 7.47398 36.6953C6.99179 35.8615 6.87751 34.9736 7.13113 34.0312C7.53634 33.1327 7.9649 32.2447 8.41681 31.3672C8.55528 31.0366 8.64099 30.6928 8.67394 30.3359C8.87304 26.438 8.84447 22.5422 8.58823 18.6484C8.48771 17.6136 8.35914 16.5823 8.20253 15.5547C8.38798 13.564 9.47363 12.5042 11.4596 12.375C13.1298 12.4591 14.1726 13.3185 14.5881 14.9531C15.0146 17.1915 15.4574 19.4259 15.9166 21.6562C21.1913 16.4105 26.4483 11.1541 31.6876 5.88671C33.1107 5.07327 34.4536 5.18785 35.716 6.23046C36.8821 7.62385 36.9536 9.07044 35.9303 10.5703C34.116 12.3893 32.3018 14.2083 30.4876 16.0273C32.6542 16.8056 33.4256 18.3095 32.8018 20.5391C34.8141 20.9393 35.7426 22.171 35.5874 24.2344C35.53 24.5361 35.43 24.8225 35.2874 25.0937C37.2192 25.6164 38.1192 26.8769 37.9874 28.875C37.8993 29.3409 37.7279 29.7706 37.4731 30.1641C34.542 33.1314 31.6421 36.1249 28.7734 39.1445C27.6087 40.2586 26.2659 41.0894 24.7449 41.6367C23.612 41.8541 22.4692 41.9974 21.3164 42.0664C20.9398 42.1636 20.5684 42.2782 20.2022 42.4102C19.1419 43.0134 18.0562 43.5433 16.9451 44ZM32.9732 6.70312C34.3348 6.59362 35.1348 7.20951 35.3732 8.55078C35.3055 8.85972 35.2055 9.1605 35.0732 9.45312C30.9328 13.6904 26.7615 17.9013 22.5592 22.0859C22.4202 22.8843 22.7488 23.1851 23.5449 22.9883C25.3449 21.1836 27.1448 19.3789 28.9448 17.5742C30.0801 17.0753 30.9515 17.376 31.559 18.4766C31.7861 19.1531 31.7004 19.7833 31.3018 20.3672C29.5876 22.0859 27.8734 23.8047 26.1591 25.5234C25.8989 26.3795 26.1989 26.7089 27.0591 26.5117C28.4877 25.0794 29.9161 23.6472 31.3447 22.2148C32.4749 21.542 33.4034 21.7569 34.1303 22.8594C34.416 23.4036 34.416 23.9479 34.1303 24.4922C32.6757 26.0367 31.1901 27.5548 29.6733 29.0469C29.4141 29.9039 29.7141 30.2333 30.5733 30.0352C31.6018 29.0039 32.6304 27.9727 33.6589 26.9414C34.7949 26.1942 35.752 26.3803 36.5303 27.5C36.8159 28.0442 36.8159 28.5886 36.5303 29.1328C33.6251 32.0455 30.7823 35.0103 28.0019 38.0273C27.0916 38.911 26.0631 39.6272 24.9163 40.1758C24.6357 40.2791 24.35 40.365 24.0592 40.4336C22.9143 40.5637 21.7715 40.707 20.6307 40.8633C20.2879 40.9778 19.945 41.0925 19.6022 41.207C18.7272 41.6886 17.8416 42.1469 16.9451 42.582C16.4941 42.7057 16.0369 42.7343 15.5737 42.668C13.1359 40.3957 10.7502 38.061 8.41681 35.6641C8.25584 35.1409 8.28442 34.6252 8.50252 34.1172C9.15296 33.0708 9.63863 31.9536 9.95962 30.7656C10.0823 27.4722 10.1109 24.1779 10.0453 20.8828C9.97565 19.1131 9.81845 17.3514 9.57392 15.5977C9.62929 14.4249 10.2435 13.7803 11.4167 13.6641C12.4403 13.7448 13.0689 14.289 13.3024 15.2969C13.8166 17.9325 14.3309 20.5679 14.8452 23.2031C15.002 23.6894 15.3306 23.847 15.8309 23.6758C21.3736 18.1185 26.9162 12.5612 32.459 7.0039C32.6498 6.92304 32.8213 6.82277 32.9732 6.70312Z"/></g></svg>